<svg width="49" height="49" viewBox="0 0 49 49" fill="none" xmlns="http://www.w3.org/2000/svg">
<mask id="mask0_236_26" style="mask-type:luminance" maskUnits="userSpaceOnUse" x="0" y="0" width="49" height="49">
<path d="M0.19043 0.0238037H48.1904V48.0238H0.19043V0.0238037Z" fill="#00D3C8"/>
</mask>
<g mask="url(#mask0_236_26)">
<path fill-rule="evenodd" clip-rule="evenodd" d="M40.1108 25.1532L27.6905 40.015C26.7132 41.1365 25.5056 41.7236 24.1894 41.725C22.8836 41.7302 21.6276 41.1168 20.6882 40.015L8.2701 25.1532C6.21978 22.7321 5.25109 19.3769 5.62032 15.9635C5.79408 14.1098 6.45109 12.2296 7.47408 10.6556C9.27679 7.93364 11.9439 6.37279 14.7914 6.37279C16.4887 6.37279 18.1231 6.91902 19.5197 7.95343L20.3016 8.60522L19.6576 9.39687L17.5117 11.9407C15.7383 14.0834 14.762 16.8832 14.762 19.8215C14.762 22.8086 15.7362 25.6058 17.5117 27.7036C19.2601 29.8147 21.62 30.9758 24.1601 30.9758L24.1991 30.9744L24.2382 30.9758C26.7794 30.9758 29.1392 29.8147 30.8844 27.7036C32.66 25.5926 33.6352 22.8218 33.6352 19.8215C33.6352 16.8832 32.6578 14.0847 30.8844 11.9407L28.7385 9.39687L28.0945 8.60522L28.8764 7.95343C30.273 6.91902 31.9085 6.37279 33.6048 6.37279C36.4533 6.37279 39.1215 7.93364 40.922 10.6556C41.9429 12.2257 42.5999 14.1085 42.7758 15.9635C43.1342 19.3782 42.1677 22.7321 40.1173 25.1532H40.1108ZM24.1905 13.0529L27.065 16.4042C27.8534 17.3568 28.2553 18.5773 28.2053 19.8518C28.2064 21.1 27.8013 22.2743 27.0346 23.2005C26.279 24.1116 25.2561 24.6201 24.1915 24.6136C23.1266 24.6204 22.1032 24.112 21.3474 23.2005C20.5807 22.2743 20.1767 21.1 20.1778 19.8518C20.1278 18.5773 20.5296 17.3582 21.3181 16.4042L24.1926 13.0529H24.1905ZM48.0819 15.1811C47.7561 12.0871 46.7526 9.17784 45.1476 6.76333C42.3088 2.47922 38.1018 0.0238037 33.5993 0.0238037C30.3523 0.0238037 27.2572 1.28779 24.6444 3.67856L24.1883 4.09549L23.7343 3.67856C21.1237 1.28779 18.0276 0.0238037 14.7805 0.0238037C10.29 0.0238037 6.06991 2.47922 3.23444 6.76333C1.63046 9.17784 0.613987 12.0871 0.299055 15.1679C-0.24719 20.5472 1.26557 25.8129 4.4529 29.6154L16.9199 44.4297C18.867 46.7387 21.4505 48.0093 24.1905 48.0107C26.907 48.0214 29.5184 46.7355 31.4621 44.4297L43.9258 29.6286C47.1121 25.8248 48.6292 20.559 48.0819 15.1811Z" fill="#00D3C8"/>
</g>
</svg>
