<?xml version="1.0" encoding="UTF-8"?>
<svg width="128px" height="34px" viewBox="0 0 128 34" version="1.1" xmlns="http://www.w3.org/2000/svg" xmlns:xlink="http://www.w3.org/1999/xlink">
    <title>logo</title>
    <defs>
        <polygon id="path-1" points="0 0 13.5988637 0 13.5988637 17.788785 0 17.788785"></polygon>
        <polygon id="path-3" points="0 0 41.0006667 0 41.0006667 34 0 34"></polygon>
    </defs>
    <g id="Symbols" stroke="none" stroke-width="1" fill="none" fill-rule="evenodd">
        <g id="MODULE-/-NAVIGATION-BAR_header" transform="translate(-39.000000, -27.000000)">
            <g id="logo" transform="translate(39.000000, 27.000000)">
                <path d="M54.6050961,22.4878505 C54.6050961,23.6093458 55.3193611,24.2803738 56.3879758,24.2803738 C56.8165348,24.2803738 57.3870192,24.1728972 57.9649245,24.0654206 L58.4658376,27.5420561 C57.3248688,27.7925234 56.2191495,27.9364486 55.2933878,27.9364486 C52.0838334,27.9364486 50.0523524,26.0018692 50.0523524,22.9551402 L50.0523524,3.89719626 L54.6162275,3.89719626 L54.6162275,22.4878505 L54.6050961,22.4878505 Z M67.7345856,23.717757 C70.3987013,23.717757 72.2214685,21.6392523 72.2214685,19.0682243 C72.2214685,16.4971963 70.3987013,14.3831776 67.7345856,14.3831776 C65.0704699,14.3831776 63.2486303,16.4953271 63.2486303,19.0682243 C63.2486303,21.6411215 65.0695423,23.717757 67.7345856,23.717757 Z M67.7345856,10.1663551 C72.8865698,10.1663551 76.7769951,14.1476636 76.7769951,19.0785047 C76.7769951,24.0093458 72.8865698,27.9551402 67.7345856,27.9551402 C62.5826014,27.9551402 58.6921761,24.011215 58.6921761,19.0785047 C58.6921761,14.1457944 62.5826014,10.1663551 67.7345856,10.1663551 Z M85.6403745,20.935514 L90.3016494,10.5084112 L95.0324956,10.5084112 L87.2163956,27.5925234 L84.0624982,27.5925234 L76.2463982,10.5084112 L80.9772444,10.5084112 L85.6385193,20.935514 L85.6403745,20.935514 Z" id="Shape" fill="#00d3c8"></path>
                <g id="Clipped" transform="translate(114.401136, 10.147664)">
                    <mask id="mask-2" fill="white">
                        <use xlink:href="#path-1"></use>
                    </mask>
                    <g id="Path"></g>
                    <g id="Group" mask="url(#mask-2)" fill="#00d3c8">
                        <g transform="translate(0.000928, 0.000935)" id="Path">
                            <path d="M2.20680059,12.2214953 C3.36261124,13.2775701 5.15105661,13.9130841 6.86807548,13.9130841 C8.09438502,13.9130841 9.04148187,13.3149533 9.04148187,12.4691589 C9.04148187,9.89906542 0.804243847,10.8130841 0.804243847,5.31962617 C0.804243847,2.04392523 3.95814129,0 7.32539061,0 C9.53311882,0 11.9514161,0.845794393 13.0719773,1.72616822 L10.9347479,5.03738318 C10.05815,4.40373832 8.90141172,3.87476636 7.67417457,3.87476636 C6.41261559,3.87476636 5.36162565,4.3682243 5.36162565,5.24859813 C5.36162565,7.4682243 13.5988637,6.58785047 13.5988637,12.5046729 C13.5988637,15.7813084 10.4078616,17.788785 6.83375366,17.788785 C4.48688292,17.788785 1.99808679,16.9785047 0,15.4990654 L2.20772821,12.2233645 L2.20680059,12.2214953 Z"></path>
                        </g>
                    </g>
                </g>
                <g id="Clipped">
                    <mask id="mask-4" fill="white">
                        <use xlink:href="#path-3"></use>
                    </mask>
                    <g id="Path"></g>
                    <g id="Group" mask="url(#mask-4)" fill="#00d3c8">
                        <g transform="translate(-0.000858, 0.000000)" id="Shape">
                            <path d="M34.1000547,17.8 L23.4909003,28.3271028 C22.6560451,29.1214953 21.6245351,29.5373832 20.5002635,29.5383415 C19.3849273,29.5420453 18.3120875,29.1075427 17.5096266,28.3271028 L6.90232741,17.8 C5.15098671,16.0850467 4.32355244,13.7084112 4.63894219,11.2906542 C4.78736089,9.97757009 5.34856911,8.64579439 6.22238423,7.53084112 C7.76222827,5.60280374 10.0404554,4.49719626 12.4726669,4.49719626 C13.9225321,4.49719626 15.3185955,4.88411215 16.5115108,5.61682243 L17.179395,6.07850467 L16.6293182,6.63925234 L14.7963472,8.4411215 C13.2815488,9.9588785 12.4476212,11.9420561 12.4476212,14.0233645 C12.4476212,16.1392523 13.2796936,18.1205607 14.7963472,19.6065421 C16.2898104,21.1018692 18.3055219,21.9242991 20.4752178,21.9242991 L20.508612,21.9233645 L20.5420062,21.9242991 C22.7126298,21.9242991 24.7283413,21.1018692 26.2190216,19.6065421 C27.7356752,18.111215 28.5686752,16.1485981 28.5686752,14.0233645 C28.5686752,11.9420561 27.73382,9.95981308 26.2190216,8.4411215 L24.3860506,6.63925234 L23.8359738,6.07850467 L24.503858,5.61682243 C25.6967733,4.88411215 27.0937643,4.49719626 28.5427019,4.49719626 C30.975841,4.49719626 33.2549958,5.60280374 34.7929846,7.53084112 C35.6649444,8.64299065 36.2261527,9.97663551 36.3764266,11.2906542 C36.6825402,13.7093458 35.8569611,16.0850467 34.1056204,17.8 L34.1000547,17.8 Z M20.5011911,9.22897196 L22.956593,11.6028037 C23.6300429,12.2775701 23.9732611,13.1420561 23.9305907,14.0448598 C23.9315184,14.928972 23.5855173,15.7607477 22.9306197,16.4168224 C22.2852214,17.0622247 21.4114475,17.4223606 20.5021187,17.4178054 C19.592469,17.4226093 18.7183158,17.0624546 18.07269,16.4168224 C17.4177925,15.7607477 17.072719,14.928972 17.0736467,14.0448598 C17.0309763,13.1420561 17.3741945,12.2785047 18.0476444,11.6028037 L20.5030463,9.22897196 L20.5011911,9.22897196 Z M40.9087628,10.7364486 C40.6304777,8.54485981 39.7733597,6.48411215 38.4023419,4.77383178 C35.9775513,1.73925234 32.3839635,0 28.5380639,0 C25.7644893,0 23.1207812,0.895327103 20.8889349,2.58878505 L20.4993358,2.88411215 L20.111592,2.58878505 C17.881601,0.895327103 15.2369652,0 12.4633907,0 C8.62769483,0 5.02297558,1.73925234 2.60096787,4.77383178 C1.23087772,6.48411215 0.362628305,8.54485981 0.0936194058,10.7271028 C-0.372971892,14.5373832 0.919198442,18.2672897 3.64175403,20.9607477 L14.290796,31.4542056 C15.9540131,33.0897196 18.1608137,33.9897196 20.5011911,33.9907023 C22.8216252,33.9983282 25.0522152,33.0874471 26.7125138,31.4542056 L37.3587729,20.9700935 C40.0804009,18.2757009 41.375354,14.5457944 40.9078351,10.7364486 L40.9087628,10.7364486 Z"></path>
                        </g>
                    </g>
                </g>
                <path d="M110.061744,10.4990654 L105.470041,20.7495327 L100.493376,10.4990654 L95.4814622,10.4990654 L103.291996,25.8476636 L102.991449,26.6308411 C102.061049,28.6869159 101.038815,29.2411215 99.3755979,29.2411215 C98.8839609,29.2411215 98.24205,29.1261682 97.6001391,28.9757009 L97.0046091,32.4915888 C97.8997846,32.874704 98.8579769,33.0864166 99.8301302,33.1158879 C103.670464,33.2056075 105.931994,30.9448598 107.594284,26.7280374 L107.958837,25.9149533 L114.864017,10.4990654 L110.062672,10.4990654 L110.061744,10.4990654 Z" id="Path" fill="#00d3c8"></path>
            </g>
        </g>
    </g>
</svg>