<svg width="162" height="34" viewBox="0 0 162 34" fill="none" xmlns="http://www.w3.org/2000/svg">
<g clip-path="url(#clip0_306_41)">
<path d="M37.5772 -0.815674H6.23848C5.00123 -0.815674 4 0.186605 4 1.42281V32.7615C4 33.9988 5.00123 35 6.23848 35H37.5772C38.8145 35 39.8157 33.9988 39.8157 32.7615V1.42281C39.8157 0.186605 38.8145 -0.815674 37.5772 -0.815674ZM26.3848 1.42281L28.6233 5.89977H24.1463L21.9078 1.42281H26.3848ZM17.4309 1.42281L19.6694 5.89977H15.1924L12.9539 1.42281H17.4309ZM6.23848 1.42281H8.47696L10.7154 5.89977H6.23848V1.42281ZM37.5772 32.7615H6.23848V8.13824H37.5772V32.7615ZM37.5772 5.89977H33.1002L30.8618 1.42281H35.3387L37.5772 3.66129V5.89977Z" fill="white"/>
<path d="M11.0428 27.0667L11.2779 13.468H14.5013L15.9955 21.3754L17.6072 13.468H20.713L20.9481 27.0667H18.8159L18.5641 18.0177L16.986 27.0667H15.0889L13.41 17.9505L13.2085 27.0667H11.0428Z" fill="white"/>
<path d="M22.8637 27.0667L23.0987 13.468H26.3221L27.8163 21.3754L29.428 13.468H32.5339L32.769 27.0667H30.6368L30.385 18.0177L28.8069 27.0667H26.9097L25.2309 17.9505L25.0294 27.0667H22.8637Z" fill="white"/>
<path d="M49.1837 28L49.5197 8.56H54.1277L56.2637 19.864L58.5677 8.56H63.0077L63.3437 28H60.2957L59.9357 15.064L57.6797 28H54.9677L52.5677 14.968L52.2797 28H49.1837ZM70.4981 28.24C69.5061 28.24 68.6421 28.072 67.9061 27.736C67.1861 27.4 66.6261 26.896 66.2261 26.224C65.8421 25.552 65.6501 24.712 65.6501 23.704V18.424C65.6501 17.416 65.8421 16.576 66.2261 15.904C66.6261 15.232 67.1861 14.728 67.9061 14.392C68.6421 14.056 69.5061 13.888 70.4981 13.888C71.4901 13.888 72.3461 14.056 73.0661 14.392C73.8021 14.728 74.3701 15.232 74.7701 15.904C75.1701 16.576 75.3701 17.416 75.3701 18.424V23.704C75.3701 24.712 75.1701 25.552 74.7701 26.224C74.3701 26.896 73.8021 27.4 73.0661 27.736C72.3461 28.072 71.4901 28.24 70.4981 28.24ZM70.5221 25.648C70.7781 25.648 70.9781 25.584 71.1221 25.456C71.2661 25.312 71.3621 25.12 71.4101 24.88C71.4741 24.624 71.5061 24.32 71.5061 23.968V18.16C71.5061 17.808 71.4741 17.512 71.4101 17.272C71.3621 17.016 71.2661 16.824 71.1221 16.696C70.9781 16.552 70.7781 16.48 70.5221 16.48C70.2661 16.48 70.0661 16.552 69.9221 16.696C69.7781 16.824 69.6741 17.016 69.6101 17.272C69.5461 17.512 69.5141 17.808 69.5141 18.16V23.968C69.5141 24.32 69.5461 24.624 69.6101 24.88C69.6741 25.12 69.7781 25.312 69.9221 25.456C70.0661 25.584 70.2661 25.648 70.5221 25.648ZM79.3397 28L76.5557 14.128H80.2997L81.4517 22.984L82.5077 14.128H86.2517L83.3957 28H79.3397ZM87.6652 28V14.128H91.5772V28H87.6652ZM87.6412 11.776V9.064H91.5772V11.776H87.6412ZM98.5288 28.24C97.5208 28.24 96.6568 28.064 95.9368 27.712C95.2168 27.344 94.6648 26.816 94.2808 26.128C93.8968 25.424 93.7048 24.584 93.7048 23.608V18.52C93.7048 17.528 93.8968 16.688 94.2808 16C94.6648 15.312 95.2168 14.792 95.9368 14.44C96.6728 14.072 97.5368 13.888 98.5288 13.888C99.5528 13.888 100.401 14.064 101.073 14.416C101.761 14.768 102.273 15.288 102.609 15.976C102.961 16.664 103.137 17.512 103.137 18.52V21.304H97.5688V23.968C97.5688 24.32 97.6088 24.608 97.6888 24.832C97.7688 25.056 97.8808 25.216 98.0248 25.312C98.1688 25.408 98.3368 25.456 98.5288 25.456C98.7208 25.456 98.8888 25.416 99.0328 25.336C99.1928 25.24 99.3128 25.096 99.3928 24.904C99.4888 24.712 99.5368 24.448 99.5368 24.112V22.648H103.137V23.992C103.137 25.4 102.729 26.464 101.913 27.184C101.097 27.888 99.9688 28.24 98.5288 28.24ZM97.5688 19.48H99.5368V18.088C99.5368 17.72 99.4888 17.432 99.3928 17.224C99.3128 17.016 99.1928 16.872 99.0328 16.792C98.8888 16.712 98.7128 16.672 98.5048 16.672C98.3128 16.672 98.1448 16.72 98.0008 16.816C97.8728 16.912 97.7688 17.08 97.6888 17.32C97.6088 17.544 97.5688 17.872 97.5688 18.304V19.48ZM111.551 28L111.887 8.56H116.495L118.631 19.864L120.935 8.56H125.375L125.711 28H122.663L122.303 15.064L120.047 28H117.335L114.935 14.968L114.647 28H111.551ZM131.161 28.24C130.457 28.24 129.865 28.072 129.385 27.736C128.905 27.4 128.545 26.976 128.305 26.464C128.065 25.936 127.945 25.4 127.945 24.856C127.945 23.992 128.113 23.264 128.449 22.672C128.801 22.08 129.257 21.584 129.817 21.184C130.377 20.784 130.993 20.448 131.665 20.176C132.337 19.888 133.001 19.632 133.657 19.408V18.016C133.657 17.776 133.633 17.568 133.585 17.392C133.537 17.2 133.457 17.056 133.345 16.96C133.233 16.848 133.065 16.792 132.841 16.792C132.617 16.792 132.441 16.84 132.313 16.936C132.201 17.032 132.121 17.168 132.073 17.344C132.025 17.504 131.993 17.688 131.977 17.896L131.881 18.904L128.233 18.76C128.313 17.096 128.753 15.872 129.553 15.088C130.369 14.288 131.585 13.888 133.201 13.888C134.609 13.888 135.657 14.28 136.345 15.064C137.049 15.832 137.401 16.832 137.401 18.064V24.544C137.401 25.12 137.409 25.624 137.425 26.056C137.457 26.488 137.489 26.864 137.521 27.184C137.569 27.504 137.609 27.776 137.641 28H134.137C134.089 27.632 134.033 27.232 133.969 26.8C133.905 26.368 133.857 26.112 133.825 26.032C133.665 26.608 133.361 27.12 132.913 27.568C132.481 28.016 131.897 28.24 131.161 28.24ZM132.553 25.6C132.713 25.6 132.857 25.568 132.985 25.504C133.129 25.44 133.257 25.352 133.369 25.24C133.481 25.128 133.577 25.016 133.657 24.904V21.112C133.337 21.304 133.041 21.504 132.769 21.712C132.497 21.904 132.265 22.12 132.073 22.36C131.881 22.6 131.729 22.864 131.617 23.152C131.521 23.424 131.473 23.736 131.473 24.088C131.473 24.552 131.569 24.92 131.761 25.192C131.953 25.464 132.217 25.6 132.553 25.6ZM143.991 28.24C142.775 28.24 141.759 27.968 140.943 27.424C140.143 26.88 139.487 25.992 138.975 24.76L141.639 23.584C141.895 24.208 142.191 24.704 142.527 25.072C142.879 25.424 143.263 25.6 143.679 25.6C143.983 25.6 144.207 25.536 144.351 25.408C144.511 25.28 144.591 25.104 144.591 24.88C144.591 24.512 144.447 24.176 144.159 23.872C143.887 23.568 143.391 23.12 142.671 22.528L141.663 21.688C140.927 21.064 140.343 20.464 139.911 19.888C139.495 19.296 139.287 18.568 139.287 17.704C139.287 16.952 139.479 16.288 139.863 15.712C140.263 15.136 140.791 14.688 141.447 14.368C142.103 14.048 142.807 13.888 143.559 13.888C144.695 13.888 145.647 14.2 146.415 14.824C147.183 15.448 147.719 16.328 148.023 17.464L145.503 18.616C145.407 18.312 145.271 18.008 145.095 17.704C144.919 17.4 144.703 17.144 144.447 16.936C144.207 16.728 143.943 16.624 143.655 16.624C143.399 16.624 143.191 16.696 143.031 16.84C142.887 16.984 142.815 17.176 142.815 17.416C142.815 17.72 142.983 18.048 143.319 18.4C143.671 18.752 144.151 19.176 144.759 19.672L145.743 20.536C146.143 20.872 146.535 21.232 146.919 21.616C147.303 22 147.615 22.424 147.855 22.888C148.111 23.352 148.239 23.88 148.239 24.472C148.239 25.272 148.039 25.96 147.639 26.536C147.239 27.096 146.711 27.52 146.055 27.808C145.415 28.096 144.727 28.24 143.991 28.24ZM149.915 28V8.56H153.803V15.352C154.315 14.84 154.851 14.472 155.411 14.248C155.971 14.008 156.571 13.888 157.211 13.888C157.771 13.888 158.235 14.032 158.603 14.32C158.987 14.592 159.275 14.976 159.467 15.472C159.659 15.952 159.755 16.504 159.755 17.128V28H155.867V17.68C155.867 17.344 155.811 17.088 155.699 16.912C155.587 16.736 155.379 16.648 155.075 16.648C154.915 16.648 154.723 16.696 154.499 16.792C154.275 16.872 154.043 16.992 153.803 17.152V28H149.915Z" fill="white"/>
</g>
<defs>
<clipPath id="clip0_306_41">
<rect width="162" height="34" fill="white"/>
</clipPath>
</defs>
</svg>
