<svg width="37" height="37" viewBox="0 0 37 37" fill="none" xmlns="http://www.w3.org/2000/svg">
<path d="M34.3182 0.20166H2.97945C1.7422 0.20166 0.740967 1.20394 0.740967 2.44014V33.7789C0.740967 35.0162 1.7422 36.0173 2.97945 36.0173H34.3182C35.5555 36.0173 36.5566 35.0161 36.5566 33.7789V2.44014C36.5566 1.20394 35.5555 0.20166 34.3182 0.20166ZM23.1258 2.44014L25.3642 6.9171H20.8873L18.6488 2.44014H23.1258ZM14.1718 2.44014L16.4103 6.9171H11.9334L9.69489 2.44014H14.1718ZM2.97945 2.44014H5.21793L7.45641 6.9171H2.97945V2.44014ZM34.3182 33.7789H2.97945V9.15558H34.3182V33.7789ZM34.3182 6.9171H29.8412L27.6027 2.44014H32.0797L34.3182 4.67862V6.9171Z" fill="white"/>
<path d="M7.78378 28.0841L8.01882 14.4853H11.2422L12.7364 22.3928L14.3481 14.4853H17.454L17.6891 28.0841H15.5569L15.3051 19.035L13.7269 28.0841H11.8298L10.151 18.9679L9.94951 28.0841H7.78378Z" fill="white"/>
<path d="M19.6047 28.0841L19.8397 14.4853H23.0631L24.5573 22.3928L26.169 14.4853H29.2749L29.5099 28.0841H27.3778L27.126 19.035L25.5478 28.0841H23.6507L21.9719 18.9679L21.7704 28.0841H19.6047Z" fill="white"/>
</svg>
